<?xml version="1.0" encoding="UTF-8" standalone="no"?>
<!-- Generator: Adobe Illustrator 16.0.0, SVG Export Plug-In . SVG Version: 6.00 Build 0)  -->

<svg
   xmlns:dc="http://purl.org/dc/elements/1.1/"
   xmlns:cc="http://creativecommons.org/ns#"
   xmlns:rdf="http://www.w3.org/1999/02/22-rdf-syntax-ns#"
   xmlns:svg="http://www.w3.org/2000/svg"
   xmlns="http://www.w3.org/2000/svg"
   xmlns:sodipodi="http://sodipodi.sourceforge.net/DTD/sodipodi-0.dtd"
   xmlns:inkscape="http://www.inkscape.org/namespaces/inkscape"
   version="1.1"
   id="Layer_1"
   x="0px"
   y="0px"
   width="841.89px"
   height="595.28px"
   viewBox="0 0 841.89 595.28"
   enable-background="new 0 0 841.89 595.28"
   xml:space="preserve"
   inkscape:version="0.48.4 r9939"
   sodipodi:docname="Jupiter Broadcasting white.svg"
   inkscape:export-filename="/home/leon/test.png"
   inkscape:export-xdpi="473"
   inkscape:export-ydpi="473"><metadata
     id="metadata61"><rdf:RDF><cc:Work
         rdf:about=""><dc:format>image/svg+xml</dc:format><dc:type
           rdf:resource="http://purl.org/dc/dcmitype/StillImage" /><dc:title></dc:title></cc:Work></rdf:RDF></metadata><defs
     id="defs59" /><sodipodi:namedview
     pagecolor="#ffffff"
     bordercolor="#666666"
     borderopacity="1"
     objecttolerance="10"
     gridtolerance="10"
     guidetolerance="10"
     inkscape:pageopacity="0"
     inkscape:pageshadow="2"
     inkscape:window-width="1920"
     inkscape:window-height="1056"
     id="namedview57"
     showgrid="false"
     inkscape:zoom="1.0616386"
     inkscape:cx="321.12617"
     inkscape:cy="250.62306"
     inkscape:window-x="0"
     inkscape:window-y="24"
     inkscape:window-maximized="1"
     inkscape:current-layer="g5" /><rect
     width="841.89"
     height="595.28"
     id="rect3" /><g
     id="g5"><g
       id="g49"><path
         d="M227.721,547.496C109.051,526.344,29.995,413.017,51.142,294.344    c16.309-91.503,87.444-159.44,173.562-176.057c9.397-6.944,20.991-14.536,33.638-20.684    C144.144,92.957,41.207,173.23,20.587,288.897C-1.915,415.155,82.192,535.745,208.463,558.251    c79.156,14.117,156.086-13.697,208.019-67.523C367.883,536.899,298.761,560.159,227.721,547.496z"
         id="path51"
         fill="#FFFFFF" /><path
         d="M390.763,145.557c-2.151,1.186-4.363,2.372-6.581,3.556c33.483,21.587,60.242,51.882,77.629,87.144    C446.152,200.691,421.716,169.405,390.763,145.557z"
         id="path53"
         fill="#FFFFFF" /></g><path
       d="M328.765,103.751c0,0,57.644-54.658,163.78-70.309c0,0,3.156-0.798,0.562,3.583   c-2.616,4.378-44.466,70.684-171.379,123.347l29.496-5.961c0,0,0.265,17.975-16.932,38.394   c-21.314,25.314-80.588,40.943-80.588,40.943s35.366-34.841,32.528-53.387c0,0-33.692,16.944-57.397,10.077   c0,0,13.045-29.503,37.062-41.03c0,0-9.813-10.864-60.631-1.709c0,0,40.28-39.215,80.251-47.079   c28.944-5.687,32.063,2.807,32.063,2.807l-17.995,25.121L328.765,103.751z"
       id="path55"
       fill="#FFFFFF" /><text
       xml:space="preserve"
       style="font-size:40px;font-style:normal;font-variant:normal;font-weight:normal;font-stretch:normal;line-height:125%;letter-spacing:0px;word-spacing:0px;fill:#000000;fill-opacity:1;stroke:none;font-family:Century Gothic;-inkscape-font-specification:Century Gothic"
       x="635.80957"
       y="105.47118"
       id="text3818"
       sodipodi:linespacing="125%"
       transform="translate(0,-9.4696599e-6)"><tspan
         sodipodi:role="line"
         id="tspan3820"
         x="635.80957"
         y="105.47118">RECEN</tspan></text>
<text
       xml:space="preserve"
       style="font-size:58.03539276px;font-style:normal;font-variant:normal;font-weight:normal;font-stretch:normal;line-height:125%;letter-spacing:0px;word-spacing:0px;fill:#000000;fill-opacity:1;stroke:none;font-family:Century Gothic;-inkscape-font-specification:Century Gothic"
       x="97.455223"
       y="403.22534"
       id="text3818-8"
       sodipodi:linespacing="125%"><tspan
         sodipodi:role="line"
         id="tspan3820-7"
         x="97.455223"
         y="403.22534"
         style="font-size:208.92741394px;font-weight:bold;fill:#ffffff;fill-opacity:1">RECENT</tspan></text>
<text
       xml:space="preserve"
       style="font-size:58.03539276px;font-style:normal;font-variant:normal;font-weight:normal;font-stretch:normal;line-height:125%;letter-spacing:0px;word-spacing:0px;fill:#000000;fill-opacity:1;stroke:none;font-family:Century Gothic;-inkscape-font-specification:Century Gothic"
       x="110.59068"
       y="474.49292"
       id="text3818-8-4"
       sodipodi:linespacing="125%"><tspan
         sodipodi:role="line"
         id="tspan3820-7-3"
         x="110.59068"
         y="474.49292"
         style="font-size:72px;font-weight:bold;fill:#ffffff;fill-opacity:1">EPISODES</tspan></text>
</g></svg>