<?xml version="1.0" encoding="UTF-8" standalone="no"?>
<!-- Created with Inkscape (http://www.inkscape.org/) -->

<svg
   xmlns:dc="http://purl.org/dc/elements/1.1/"
   xmlns:cc="http://creativecommons.org/ns#"
   xmlns:rdf="http://www.w3.org/1999/02/22-rdf-syntax-ns#"
   xmlns:svg="http://www.w3.org/2000/svg"
   xmlns="http://www.w3.org/2000/svg"
   xmlns:sodipodi="http://sodipodi.sourceforge.net/DTD/sodipodi-0.dtd"
   xmlns:inkscape="http://www.inkscape.org/namespaces/inkscape"
   id="svg2"
   version="1.1"
   inkscape:version="0.48.4 r9939"
   width="543.42267"
   height="542.4505"
   xml:space="preserve"
   sodipodi:docname="LINUX ACTION SHOW COLORED DARK.ai.svg"><metadata
     id="metadata8"><rdf:RDF><cc:Work
         rdf:about=""><dc:format>image/svg+xml</dc:format><dc:type
           rdf:resource="http://purl.org/dc/dcmitype/StillImage" /><dc:title></dc:title></cc:Work></rdf:RDF></metadata><defs
     id="defs6"><clipPath
       clipPathUnits="userSpaceOnUse"
       id="clipPath16"><path
         d="m 0,452.977 441.709,0 L 441.709,0 0,0 0,452.977 z"
         id="path18"
         inkscape:connector-curvature="0" /></clipPath></defs><sodipodi:namedview
     pagecolor="#373535"
     bordercolor="#666666"
     borderopacity="1"
     objecttolerance="10"
     gridtolerance="10"
     guidetolerance="10"
     inkscape:pageopacity="1"
     inkscape:pageshadow="2"
     inkscape:window-width="1920"
     inkscape:window-height="1056"
     id="namedview4"
     showgrid="false"
     showguides="true"
     inkscape:guide-bbox="true"
     fit-margin-top="0"
     fit-margin-left="0"
     fit-margin-right="0"
     fit-margin-bottom="0"
     inkscape:zoom="0.8335964"
     inkscape:cx="194.68123"
     inkscape:cy="193.95289"
     inkscape:window-x="0"
     inkscape:window-y="24"
     inkscape:window-maximized="1"
     inkscape:current-layer="g10" /><g
     id="g10"
     inkscape:groupmode="layer"
     inkscape:label="LINUX ACTION SHOW COLORED"
     transform="matrix(1.25,0,0,-1.25,-3.9999999,566.07316)"><path
       transform="matrix(0.82289547,0,0,-0.82499097,130.35408,355.66974)"
       sodipodi:type="arc"
       style="fill:#ffffff;fill-opacity:1;stroke:none"
       id="path5275"
       sodipodi:cx="113.66689"
       sodipodi:cy="146.33238"
       sodipodi:rx="176.43816"
       sodipodi:ry="176.43816"
       d="m 290.10505,146.33238 c 0,97.44411 -78.99405,176.43816 -176.43816,176.43816 -97.4441,0 -176.438153,-78.99405 -176.438153,-176.43816 0,-97.444101 78.994053,-176.438154 176.438153,-176.438154 97.44411,0 176.43816,78.994053 176.43816,176.438154 z" /><g
       id="g12"
       transform="matrix(0.99993223,0,0,1,-0.7416329,8.81703)"><g
         id="g4233"><g
           id="g24"
           transform="translate(179.7349,46.0176)"
           style="fill:#ffffff;fill-opacity:1"><path
             d="m 0,0 -2.5,-7.844 -27.102,8.636 12.926,40.565 9.13,-2.91 L -17.971,5.725 0,0 z"
             style="fill:#ffffff;fill-opacity:1;fill-rule:nonzero;stroke:none"
             id="path26"
             inkscape:connector-curvature="0" /></g><g
           id="g28"
           transform="translate(230.7339,66.8408)"
           style="fill:#ffffff;fill-opacity:1"><path
             d="m 0,0 c -0.178,-0.63 -0.443,-1.488 -0.796,-2.572 -0.352,-1.086 -0.753,-2.341 -1.201,-3.762 -0.446,-1.423 -0.951,-2.987 -1.508,-4.697 -0.556,-1.711 -1.117,-3.504 -1.685,-5.377 l 12.154,0.672 c -0.751,1.806 -1.477,3.533 -2.183,5.179 -0.702,1.645 -1.365,3.15 -1.99,4.513 C 2.166,-4.683 1.616,-3.48 1.144,-2.442 0.669,-1.403 0.289,-0.591 0,0 m 13.316,-32.245 c -0.555,1.45 -1.147,2.939 -1.779,4.467 -0.629,1.526 -1.257,3.048 -1.88,4.559 l -16.603,-0.916 c -0.452,-1.581 -0.906,-3.164 -1.357,-4.752 -0.453,-1.588 -0.872,-3.129 -1.256,-4.621 l -9.938,-0.551 c 1.347,4.668 2.631,8.986 3.851,12.951 1.222,3.963 2.423,7.701 3.608,11.212 1.184,3.512 2.356,6.846 3.518,10.009 1.165,3.159 2.383,6.252 3.655,9.278 l 9.07,0.5 c 1.561,-2.867 3.104,-5.806 4.63,-8.82 1.527,-3.012 3.075,-6.197 4.642,-9.556 1.563,-3.36 3.173,-6.942 4.826,-10.747 1.651,-3.805 3.406,-7.955 5.262,-12.447 l -10.249,-0.566 z"
             style="fill:#ffffff;fill-opacity:1;fill-rule:nonzero;stroke:none"
             id="path30"
             inkscape:connector-curvature="0" /></g><g
           id="g32"
           transform="translate(297.7847,56.9141)"
           style="fill:#ffffff;fill-opacity:1"><path
             d="M 0,0 C 1.235,0.552 2.208,1.108 2.92,1.675 3.632,2.238 4.15,2.807 4.477,3.381 4.804,3.952 4.953,4.523 4.924,5.094 4.893,5.663 4.744,6.247 4.477,6.847 3.909,8.117 2.836,8.906 1.266,9.213 -0.308,9.519 -2.768,9.506 -6.12,9.176 -7.591,9.056 -9.092,9.001 -10.622,9.014 c -1.53,0.009 -2.996,0.227 -4.399,0.657 -1.404,0.427 -2.702,1.125 -3.9,2.094 -1.194,0.968 -2.193,2.35 -2.994,4.143 -0.803,1.795 -1.189,3.563 -1.161,5.304 0.031,1.739 0.435,3.391 1.219,4.952 0.784,1.562 1.932,3.004 3.448,4.334 1.514,1.327 3.374,2.483 5.581,3.471 2.615,1.169 5.006,1.899 7.163,2.191 2.156,0.292 4.005,0.377 5.539,0.255 l 0.56,-8.026 c -1.337,0.076 -2.765,0.031 -4.283,-0.131 -1.521,-0.165 -3.214,-0.663 -5.086,-1.498 -2.092,-0.938 -3.466,-1.9 -4.126,-2.888 -0.656,-0.991 -0.716,-2.083 -0.182,-3.277 0.319,-0.712 0.755,-1.236 1.307,-1.571 0.553,-0.336 1.228,-0.561 2.019,-0.678 0.792,-0.117 1.662,-0.156 2.607,-0.114 0.946,0.041 1.982,0.111 3.105,0.209 2.353,0.155 4.438,0.203 6.261,0.141 1.822,-0.061 3.446,-0.355 4.872,-0.884 1.424,-0.53 2.672,-1.34 3.743,-2.43 1.07,-1.094 2.025,-2.574 2.86,-4.442 C 15.153,7.197 15.141,3.816 13.489,0.681 11.842,-2.457 8.457,-5.172 3.334,-7.46 1.614,-8.229 0.017,-8.818 -1.46,-9.23 c -1.473,-0.416 -2.812,-0.709 -4.011,-0.888 -1.199,-0.178 -2.259,-0.269 -3.175,-0.276 -0.917,-0.003 -1.703,0.024 -2.36,0.09 l -0.641,8.059 c 1.44,-0.12 3.127,-0.049 5.055,0.207 C -4.664,-1.784 -2.467,-1.104 0,0"
             style="fill:#ffffff;fill-opacity:1;fill-rule:nonzero;stroke:none"
             id="path34"
             inkscape:connector-curvature="0" /></g><g
           id="g36"
           transform="translate(340.0503,387.4648)"
           style="fill:#ffffff;fill-opacity:1"><path
             d="M 0,0 C -0.905,5.396 4.977,16.834 -5.919,25.99 -9.947,15.23 -8.981,5.445 0,0"
             style="fill:#ffffff;fill-opacity:1;fill-rule:nonzero;stroke:none"
             id="path38"
             inkscape:connector-curvature="0" /></g><g
           id="g40"
           transform="translate(350.4155,379.2529)"
           style="fill:#ffffff;fill-opacity:1"><path
             d="M 0,0 C -0.603,5.443 5.89,16.534 -4.481,26.283 -9.092,15.767 -8.668,5.928 0,0"
             style="fill:#ffffff;fill-opacity:1;fill-rule:nonzero;stroke:none"
             id="path42"
             inkscape:connector-curvature="0" /></g><g
           id="g44"
           transform="translate(359.7173,371.1069)"
           style="fill:#ffffff;fill-opacity:1"><path
             d="M 0,0 C -0.269,5.47 6.918,16.13 -2.839,26.509 -8.096,16.292 -8.294,6.458 0,0"
             style="fill:#ffffff;fill-opacity:1;fill-rule:nonzero;stroke:none"
             id="path46"
             inkscape:connector-curvature="0" /></g><g
           id="g48"
           transform="translate(395.7622,357.4375)"
           style="fill:#ffffff;fill-opacity:1"><path
             d="M 0,0 C 6.711,-12.575 -3.031,-20.991 -4.184,-26.33 -10.511,-17.914 -7.736,-8.467 0,0"
             style="fill:#ffffff;fill-opacity:1;fill-rule:nonzero;stroke:none"
             id="path50"
             inkscape:connector-curvature="0" /></g><g
           id="g52"
           transform="translate(403.9497,346.2588)"
           style="fill:#ffffff;fill-opacity:1"><path
             d="M 0,0 C 5.729,-13.048 -4.638,-20.681 -6.216,-25.913 -11.861,-17.027 -8.362,-7.828 0,0"
             style="fill:#ffffff;fill-opacity:1;fill-rule:nonzero;stroke:none"
             id="path54"
             inkscape:connector-curvature="0" /></g><g
           id="g56"
           transform="translate(411.1304,333.8555)"
           style="fill:#ffffff;fill-opacity:1"><path
             d="M 0,0 C 4.641,-13.463 -6.316,-20.238 -8.311,-25.325 -13.207,-16.015 -8.978,-7.125 0,0"
             style="fill:#ffffff;fill-opacity:1;fill-rule:nonzero;stroke:none"
             id="path58"
             inkscape:connector-curvature="0" /></g><g
           id="g60"
           transform="translate(417.2183,321.5474)"
           style="fill:#ffffff;fill-opacity:1"><path
             d="M 0,0 C 4.648,-13.467 -6.3,-20.24 -8.287,-25.327 -13.201,-16.017 -8.974,-7.13 0,0"
             style="fill:#ffffff;fill-opacity:1;fill-rule:nonzero;stroke:none"
             id="path62"
             inkscape:connector-curvature="0" /></g><g
           id="g64"
           transform="translate(423.1069,308.8667)"
           style="fill:#ffffff;fill-opacity:1"><path
             d="M 0,0 C 3.211,-13.881 -8.386,-19.466 -10.899,-24.314 -14.799,-14.549 -9.676,-6.153 0,0"
             style="fill:#ffffff;fill-opacity:1;fill-rule:nonzero;stroke:none"
             id="path66"
             inkscape:connector-curvature="0" /></g><g
           id="g68"
           transform="translate(427.9731,296.0039)"
           style="fill:#ffffff;fill-opacity:1"><path
             d="M 0,0 C 2.358,-14.042 -9.554,-18.928 -12.341,-23.613 -15.656,-13.625 -10.033,-5.551 0,0"
             style="fill:#ffffff;fill-opacity:1;fill-rule:nonzero;stroke:none"
             id="path70"
             inkscape:connector-curvature="0" /></g><g
           id="g72"
           transform="translate(432.0405,282.1846)"
           style="fill:#ffffff;fill-opacity:1"><path
             d="M 0,0 C 1.312,-14.186 -10.944,-18.163 -14.068,-22.625 -16.63,-12.425 -10.412,-4.791 0,0"
             style="fill:#ffffff;fill-opacity:1;fill-rule:nonzero;stroke:none"
             id="path74"
             inkscape:connector-curvature="0" /></g><g
           id="g76"
           transform="translate(435.0776,268.6304)"
           style="fill:#ffffff;fill-opacity:1"><path
             d="M 0,0 C 0.288,-14.243 -12.217,-17.328 -15.668,-21.56 -17.478,-11.192 -10.744,-4.03 0,0"
             style="fill:#ffffff;fill-opacity:1;fill-rule:nonzero;stroke:none"
             id="path78"
             inkscape:connector-curvature="0" /></g><g
           id="g80"
           transform="translate(437.5034,254.75)"
           style="fill:#ffffff;fill-opacity:1"><path
             d="M 0,0 C -0.52,-14.242 -13.172,-16.617 -16.857,-20.644 -18.094,-10.191 -10.943,-3.425 0,0"
             style="fill:#ffffff;fill-opacity:1;fill-rule:nonzero;stroke:none"
             id="path82"
             inkscape:connector-curvature="0" /></g><g
           id="g84"
           transform="translate(438.5698,240.4624)"
           style="fill:#ffffff;fill-opacity:1"><path
             d="M 0,0 C -1.673,-14.153 -14.479,-15.485 -18.471,-19.197 -18.85,-8.692 -11.183,-2.525 0,0"
             style="fill:#ffffff;fill-opacity:1;fill-rule:nonzero;stroke:none"
             id="path86"
             inkscape:connector-curvature="0" /></g><g
           id="g88"
           transform="translate(438.7095,226.7227)"
           style="fill:#ffffff;fill-opacity:1"><path
             d="M 0,0 C -1.664,-14.139 -14.465,-15.484 -18.458,-19.21 -18.849,-8.688 -11.168,-2.521 0,0"
             style="fill:#ffffff;fill-opacity:1;fill-rule:nonzero;stroke:none"
             id="path90"
             inkscape:connector-curvature="0" /></g><g
           id="g92"
           transform="translate(438.5151,212.7461)"
           style="fill:#ffffff;fill-opacity:1"><path
             d="M 0,0 C -3.142,-13.898 -16.033,-13.88 -20.381,-17.164 -19.672,-6.674 -11.397,-1.335 0,0"
             style="fill:#ffffff;fill-opacity:1;fill-rule:nonzero;stroke:none"
             id="path94"
             inkscape:connector-curvature="0" /></g><g
           id="g96"
           transform="translate(437.2983,199.042)"
           style="fill:#ffffff;fill-opacity:1"><path
             d="M 0,0 C -3.963,-13.672 -16.823,-12.891 -21.378,-15.905 -20.025,-5.47 -11.446,-0.64 0,0"
             style="fill:#ffffff;fill-opacity:1;fill-rule:nonzero;stroke:none"
             id="path98"
             inkscape:connector-curvature="0" /></g><g
           id="g100"
           transform="translate(434.9546,184.835)"
           style="fill:#ffffff;fill-opacity:1"><path
             d="M 0,0 C -4.976,-13.348 -17.738,-11.614 -22.498,-14.271 -20.368,-3.964 -11.455,0.198 0,0"
             style="fill:#ffffff;fill-opacity:1;fill-rule:nonzero;stroke:none"
             id="path102"
             inkscape:connector-curvature="0" /></g><g
           id="g104"
           transform="translate(431.8042,171.3145)"
           style="fill:#ffffff;fill-opacity:1"><path
             d="M 0,0 C -5.934,-12.962 -18.532,-10.313 -23.474,-12.62 -20.605,-2.489 -11.415,1.027 0,0"
             style="fill:#ffffff;fill-opacity:1;fill-rule:nonzero;stroke:none"
             id="path106"
             inkscape:connector-curvature="0" /></g><g
           id="g108"
           transform="translate(429.1274,157.668)"
           style="fill:#ffffff;fill-opacity:1"><path
             d="M 0,0 C -6.845,-12.495 -19.222,-8.95 -24.323,-10.892 -20.737,-1.007 -11.311,1.846 0,0"
             style="fill:#ffffff;fill-opacity:1;fill-rule:nonzero;stroke:none"
             id="path110"
             inkscape:connector-curvature="0" /></g><g
           id="g112"
           transform="translate(423.6763,144.418)"
           style="fill:#ffffff;fill-opacity:1"><path
             d="M 0,0 C -7.837,-11.904 -19.873,-7.357 -25.122,-8.89 -20.747,0.683 -11.124,2.756 0,0"
             style="fill:#ffffff;fill-opacity:1;fill-rule:nonzero;stroke:none"
             id="path114"
             inkscape:connector-curvature="0" /></g><g
           id="g116"
           transform="translate(417.6519,132.0713)"
           style="fill:#ffffff;fill-opacity:1"><path
             d="M 0,0 C -7.835,-11.904 -19.872,-7.366 -25.13,-8.899 -20.75,0.67 -11.129,2.758 0,0"
             style="fill:#ffffff;fill-opacity:1;fill-rule:nonzero;stroke:none"
             id="path118"
             inkscape:connector-curvature="0" /></g><g
           id="g120"
           transform="translate(411.2065,119.666)"
           style="fill:#ffffff;fill-opacity:1"><path
             d="M 0,0 C -9.038,-11.015 -20.549,-5.235 -25.923,-6.214 -20.565,2.851 -10.782,3.912 0,0"
             style="fill:#ffffff;fill-opacity:1;fill-rule:nonzero;stroke:none"
             id="path122"
             inkscape:connector-curvature="0" /></g><g
           id="g124"
           transform="translate(403.9927,107.9688)"
           style="fill:#ffffff;fill-opacity:1"><path
             d="M 0,0 C -9.694,-10.455 -20.832,-3.995 -26.245,-4.651 -20.369,4.074 -10.538,4.552 0,0"
             style="fill:#ffffff;fill-opacity:1;fill-rule:nonzero;stroke:none"
             id="path126"
             inkscape:connector-curvature="0" /></g><g
           id="g128"
           transform="translate(395.52,96.3145)"
           style="fill:#ffffff;fill-opacity:1"><path
             d="M 0,0 C -10.434,-9.707 -21.055,-2.431 -26.509,-2.686 -19.987,5.569 -10.151,5.308 0,0"
             style="fill:#ffffff;fill-opacity:1;fill-rule:nonzero;stroke:none"
             id="path130"
             inkscape:connector-curvature="0" /></g><g
           id="g132"
           transform="translate(386.6392,85.6318)"
           style="fill:#ffffff;fill-opacity:1"><path
             d="M 0,0 C -11.101,-8.944 -21.179,-0.91 -26.642,-0.767 -19.538,6.999 -9.746,6.033 0,0"
             style="fill:#ffffff;fill-opacity:1;fill-rule:nonzero;stroke:none"
             id="path134"
             inkscape:connector-curvature="0" /></g><g
           id="g136"
           transform="translate(377.5376,75.7178)"
           style="fill:#ffffff;fill-opacity:1"><path
             d="M 0,0 C -11.437,-8.483 -21.21,-0.09 -26.651,0.271 -19.248,7.757 -9.504,6.406 0,0"
             style="fill:#ffffff;fill-opacity:1;fill-rule:nonzero;stroke:none"
             id="path138"
             inkscape:connector-curvature="0" /></g><g
           id="g140"
           transform="translate(367.0493,65.9492)"
           style="fill:#ffffff;fill-opacity:1"><path
             d="M 0,0 C -12.101,-7.526 -21.132,1.649 -26.539,2.439 -18.564,9.305 -8.947,7.167 0,0"
             style="fill:#ffffff;fill-opacity:1;fill-rule:nonzero;stroke:none"
             id="path142"
             inkscape:connector-curvature="0" /></g><g
           id="g144"
           transform="translate(356.4106,57.2646)"
           style="fill:#ffffff;fill-opacity:1"><path
             d="M 0,0 C -12.086,-7.529 -21.13,1.626 -26.538,2.433 -18.56,9.285 -8.954,7.162 0,0"
             style="fill:#ffffff;fill-opacity:1;fill-rule:nonzero;stroke:none"
             id="path146"
             inkscape:connector-curvature="0" /></g><g
           id="g148"
           transform="translate(345.3628,48.6982)"
           style="fill:#ffffff;fill-opacity:1"><path
             d="M 0,0 C -12.812,-6.229 -20.85,3.828 -26.127,5.197 -17.482,11.184 -8.158,8.053 0,0"
             style="fill:#ffffff;fill-opacity:1;fill-rule:nonzero;stroke:none"
             id="path150"
             inkscape:connector-curvature="0" /></g><g
           id="g152"
           transform="translate(333.9146,41.0938)"
           style="fill:#ffffff;fill-opacity:1"><path
             d="M 0,0 C -13.172,-5.453 -20.585,5.079 -25.777,6.746 -16.785,12.203 -7.656,8.535 0,0"
             style="fill:#ffffff;fill-opacity:1;fill-rule:nonzero;stroke:none"
             id="path154"
             inkscape:connector-curvature="0" /></g><g
           id="g156"
           transform="translate(321.353,34.0352)"
           style="fill:#ffffff;fill-opacity:1"><path
             d="M 0,0 C -13.538,-4.447 -20.146,6.6 -25.209,8.661 -15.825,13.442 -6.997,9.079 0,0"
             style="fill:#ffffff;fill-opacity:1;fill-rule:nonzero;stroke:none"
             id="path158"
             inkscape:connector-curvature="0" /></g><g
           id="g160"
           transform="translate(308.8101,28.0469)"
           style="fill:#ffffff;fill-opacity:1"><path
             d="M 0,0 C -13.813,-3.454 -19.613,8.038 -24.506,10.464 -14.813,14.546 -6.313,9.57 0,0"
             style="fill:#ffffff;fill-opacity:1;fill-rule:nonzero;stroke:none"
             id="path162"
             inkscape:connector-curvature="0" /></g><g
           id="g164"
           transform="translate(296.4185,23.4658)"
           style="fill:#ffffff;fill-opacity:1"><path
             d="M 0,0 C -13.994,-2.657 -19.121,9.148 -23.868,11.861 -13.952,15.372 -5.764,9.906 0,0"
             style="fill:#ffffff;fill-opacity:1;fill-rule:nonzero;stroke:none"
             id="path166"
             inkscape:connector-curvature="0" /></g><g
           id="g168"
           transform="translate(282.729,19.2383)"
           style="fill:#ffffff;fill-opacity:1"><path
             d="M 0,0 C -14.166,-1.495 -18.314,10.695 -22.831,13.765 -12.654,16.464 -4.943,10.35 0,0"
             style="fill:#ffffff;fill-opacity:1;fill-rule:nonzero;stroke:none"
             id="path170"
             inkscape:connector-curvature="0" /></g><g
           id="g172"
           transform="translate(269.356,16.0625)"
           style="fill:#ffffff;fill-opacity:1"><path
             d="M 0,0 C -14.162,-1.518 -18.306,10.67 -22.821,13.739 -12.651,16.448 -4.937,10.347 0,0"
             style="fill:#ffffff;fill-opacity:1;fill-rule:nonzero;stroke:none"
             id="path174"
             inkscape:connector-curvature="0" /></g><g
           id="g176"
           transform="translate(255.6792,13.1436)"
           style="fill:#ffffff;fill-opacity:1"><path
             d="M 0,0 C -14.241,-0.004 -17.092,12.56 -21.265,16.088 -10.861,17.703 -3.827,10.838 0,0"
             style="fill:#ffffff;fill-opacity:1;fill-rule:nonzero;stroke:none"
             id="path178"
             inkscape:connector-curvature="0" /></g><g
           id="g180"
           transform="translate(242.063,11.3008)"
           style="fill:#ffffff;fill-opacity:1"><path
             d="M 0,0 C -14.218,0.839 -16.312,13.545 -20.257,17.31 -9.779,18.31 -3.171,11.013 0,0"
             style="fill:#ffffff;fill-opacity:1;fill-rule:nonzero;stroke:none"
             id="path182"
             inkscape:connector-curvature="0" /></g><g
           id="g184"
           transform="translate(227.687,10.4209)"
           style="fill:#ffffff;fill-opacity:1"><path
             d="M 0,0 C -14.121,1.9 -15.26,14.735 -18.912,18.788 -8.388,18.995 -2.351,11.227 0,0"
             style="fill:#ffffff;fill-opacity:1;fill-rule:nonzero;stroke:none"
             id="path186"
             inkscape:connector-curvature="0" /></g><g
           id="g188"
           transform="translate(213.7896,10.498)"
           style="fill:#ffffff;fill-opacity:1"><path
             d="M 0,0 C -13.943,2.907 -14.159,15.791 -17.501,20.097 -6.995,19.543 -1.521,11.376 0,0"
             style="fill:#ffffff;fill-opacity:1;fill-rule:nonzero;stroke:none"
             id="path190"
             inkscape:connector-curvature="0" /></g><g
           id="g192"
           transform="translate(199.896,10.0811)"
           style="fill:#ffffff;fill-opacity:1"><path
             d="M 0,0 C -13.698,3.91 -12.987,16.765 -16.022,21.3 -5.581,19.995 -0.706,11.456 0,0"
             style="fill:#ffffff;fill-opacity:1;fill-rule:nonzero;stroke:none"
             id="path194"
             inkscape:connector-curvature="0" /></g><g
           id="g196"
           transform="translate(185.7671,12.4531)"
           style="fill:#ffffff;fill-opacity:1"><path
             d="M 0,0 C -13.343,5.005 -11.58,17.756 -14.244,22.527 -3.94,20.388 0.223,11.47 0,0"
             style="fill:#ffffff;fill-opacity:1;fill-rule:nonzero;stroke:none"
             id="path198"
             inkscape:connector-curvature="0" /></g><g
           id="g200"
           transform="translate(172.397,15.5967)"
           style="fill:#ffffff;fill-opacity:1"><path
             d="M 0,0 C -13.344,4.995 -11.593,17.749 -14.25,22.52 -3.943,20.378 0.213,11.456 0,0"
             style="fill:#ffffff;fill-opacity:1;fill-rule:nonzero;stroke:none"
             id="path202"
             inkscape:connector-curvature="0" /></g><g
           id="g204"
           transform="translate(158.8735,19.125)"
           style="fill:#ffffff;fill-opacity:1"><path
             d="M 0,0 C -12.754,6.371 -9.673,18.878 -11.813,23.896 -1.79,20.693 1.411,11.389 0,0"
             style="fill:#ffffff;fill-opacity:1;fill-rule:nonzero;stroke:none"
             id="path206"
             inkscape:connector-curvature="0" /></g><g
           id="g208"
           transform="translate(145.8589,23.5732)"
           style="fill:#ffffff;fill-opacity:1"><path
             d="M 0,0 C -12.34,7.121 -8.517,19.418 -10.355,24.564 -0.544,20.748 2.098,11.271 0,0"
             style="fill:#ffffff;fill-opacity:1;fill-rule:nonzero;stroke:none"
             id="path210"
             inkscape:connector-curvature="0" /></g><g
           id="g212"
           transform="translate(132.6123,29.2314)"
           style="fill:#ffffff;fill-opacity:1"><path
             d="M 0,0 C -11.773,8.031 -7.044,20.007 -8.483,25.254 1.003,20.741 2.935,11.082 0,0"
             style="fill:#ffffff;fill-opacity:1;fill-rule:nonzero;stroke:none"
             id="path214"
             inkscape:connector-curvature="0" /></g><g
           id="g216"
           transform="translate(120.2271,35.5215)"
           style="fill:#ffffff;fill-opacity:1"><path
             d="M 0,0 C -11.165,8.849 -5.585,20.459 -6.654,25.811 2.496,20.614 3.726,10.843 0,0"
             style="fill:#ffffff;fill-opacity:1;fill-rule:nonzero;stroke:none"
             id="path218"
             inkscape:connector-curvature="0" /></g><g
           id="g220"
           transform="translate(108.5415,42.2012)"
           style="fill:#ffffff;fill-opacity:1"><path
             d="M 0,0 C -10.808,9.286 -4.781,20.661 -5.644,26.043 3.3,20.496 4.146,10.693 0,0"
             style="fill:#ffffff;fill-opacity:1;fill-rule:nonzero;stroke:none"
             id="path222"
             inkscape:connector-curvature="0" /></g><g
           id="g224"
           transform="translate(96.7031,50.2725)"
           style="fill:#ffffff;fill-opacity:1"><path
             d="M 0,0 C -10.032,10.112 -3.098,20.968 -3.512,26.41 4.94,20.159 4.995,10.314 0,0"
             style="fill:#ffffff;fill-opacity:1;fill-rule:nonzero;stroke:none"
             id="path226"
             inkscape:connector-curvature="0" /></g><g
           id="g228"
           transform="translate(85.8618,58.7129)"
           style="fill:#ffffff;fill-opacity:1"><path
             d="M 0,0 C -10.028,10.107 -3.095,20.969 -3.515,26.423 4.953,20.155 4.994,10.315 0,0"
             style="fill:#ffffff;fill-opacity:1;fill-rule:nonzero;stroke:none"
             id="path230"
             inkscape:connector-curvature="0" /></g><g
           id="g232"
           transform="translate(75.0532,67.5742)"
           style="fill:#ffffff;fill-opacity:1"><path
             d="M 0,0 C -8.905,11.113 -0.877,21.196 -0.729,26.65 7.034,19.539 6.057,9.747 0,0"
             style="fill:#ffffff;fill-opacity:1;fill-rule:nonzero;stroke:none"
             id="path234"
             inkscape:connector-curvature="0" /></g><g
           id="g236"
           transform="translate(65.0991,77.0645)"
           style="fill:#ffffff;fill-opacity:1"><path
             d="M 0,0 C -8.233,11.627 0.389,21.188 0.868,26.641 8.19,19.067 6.613,9.356 0,0"
             style="fill:#ffffff;fill-opacity:1;fill-rule:nonzero;stroke:none"
             id="path238"
             inkscape:connector-curvature="0" /></g><g
           id="g240"
           transform="translate(55.4395,87.7451)"
           style="fill:#ffffff;fill-opacity:1"><path
             d="M 0,0 C -7.347,12.209 1.962,21.109 2.854,26.491 9.585,18.408 7.295,8.841 0,0"
             style="fill:#ffffff;fill-opacity:1;fill-rule:nonzero;stroke:none"
             id="path242"
             inkscape:connector-curvature="0" /></g><g
           id="g244"
           transform="translate(47.6123,97.5967)"
           style="fill:#ffffff;fill-opacity:1"><path
             d="M 0,0 C -6.436,12.704 3.483,20.91 4.76,26.214 10.888,17.671 7.921,8.284 0,0"
             style="fill:#ffffff;fill-opacity:1;fill-rule:nonzero;stroke:none"
             id="path246"
             inkscape:connector-curvature="0" /></g><g
           id="g248"
           transform="translate(40.4097,108.6904)"
           style="fill:#ffffff;fill-opacity:1"><path
             d="M 0,0 C -5.836,13 4.466,20.723 5.989,25.969 11.712,17.143 8.3,7.909 0,0"
             style="fill:#ffffff;fill-opacity:1;fill-rule:nonzero;stroke:none"
             id="path250"
             inkscape:connector-curvature="0" /></g><g
           id="g252"
           transform="translate(33.1245,119.9707)"
           style="fill:#ffffff;fill-opacity:1"><path
             d="M 0,0 C -4.76,13.432 6.139,20.297 8.072,25.396 13.07,16.135 8.921,7.208 0,0"
             style="fill:#ffffff;fill-opacity:1;fill-rule:nonzero;stroke:none"
             id="path254"
             inkscape:connector-curvature="0" /></g><g
           id="g256"
           transform="translate(26.9238,132.2334)"
           style="fill:#ffffff;fill-opacity:1"><path
             d="M 0,0 C -4.759,13.418 6.126,20.293 8.07,25.393 13.059,16.123 8.909,7.204 0,0"
             style="fill:#ffffff;fill-opacity:1;fill-rule:nonzero;stroke:none"
             id="path258"
             inkscape:connector-curvature="0" /></g><g
           id="g260"
           transform="translate(20.9238,144.8623)"
           style="fill:#ffffff;fill-opacity:1"><path
             d="M 0,0 C -3.323,13.846 8.23,19.537 10.692,24.411 14.679,14.671 9.629,6.233 0,0"
             style="fill:#ffffff;fill-opacity:1;fill-rule:nonzero;stroke:none"
             id="path262"
             inkscape:connector-curvature="0" /></g><g
           id="g264"
           transform="translate(15.9531,157.6758)"
           style="fill:#ffffff;fill-opacity:1"><path
             d="M 0,0 C -2.496,14.023 9.381,19.013 12.136,23.73 15.542,13.767 9.974,5.643 0,0"
             style="fill:#ffffff;fill-opacity:1;fill-rule:nonzero;stroke:none"
             id="path266"
             inkscape:connector-curvature="0" /></g><g
           id="g268"
           transform="translate(11.7612,171.458)"
           style="fill:#ffffff;fill-opacity:1"><path
             d="M 0,0 C -1.434,14.178 10.77,18.261 13.874,22.753 16.525,12.563 10.368,4.886 0,0"
             style="fill:#ffffff;fill-opacity:1;fill-rule:nonzero;stroke:none"
             id="path270"
             inkscape:connector-curvature="0" /></g><g
           id="g272"
           transform="translate(8.605,184.9863)"
           style="fill:#ffffff;fill-opacity:1"><path
             d="M 0,0 C -0.406,14.245 12.062,17.434 15.477,21.69 17.38,11.348 10.695,4.128 0,0"
             style="fill:#ffffff;fill-opacity:1;fill-rule:nonzero;stroke:none"
             id="path274"
             inkscape:connector-curvature="0" /></g><g
           id="g276"
           transform="translate(4.9746,198.4023)"
           style="fill:#ffffff;fill-opacity:1"><path
             d="M 0,0 C 0.613,14.23 13.29,16.525 16.997,20.528 18.15,10.068 10.962,3.348 0,0"
             style="fill:#ffffff;fill-opacity:1;fill-rule:nonzero;stroke:none"
             id="path278"
             inkscape:connector-curvature="0" /></g><g
           id="g280"
           transform="translate(3.9951,212.6953)"
           style="fill:#ffffff;fill-opacity:1"><path
             d="M 0,0 C 1.764,14.131 14.582,15.396 18.602,19.084 18.913,8.57 11.202,2.442 0,0"
             style="fill:#ffffff;fill-opacity:1;fill-rule:nonzero;stroke:none"
             id="path282"
             inkscape:connector-curvature="0" /></g><g
           id="g284"
           transform="translate(3.9419,226.4321)"
           style="fill:#ffffff;fill-opacity:1"><path
             d="M 0,0 C 1.753,14.141 14.575,15.395 18.599,19.087 18.908,8.572 11.195,2.448 0,0"
             style="fill:#ffffff;fill-opacity:1;fill-rule:nonzero;stroke:none"
             id="path286"
             inkscape:connector-curvature="0" /></g><g
           id="g288"
           transform="translate(4.2397,240.4058)"
           style="fill:#ffffff;fill-opacity:1"><path
             d="M 0,0 C 3.226,13.877 16.103,13.788 20.496,17.046 19.693,6.55 11.387,1.265 0,0"
             style="fill:#ffffff;fill-opacity:1;fill-rule:nonzero;stroke:none"
             id="path290"
             inkscape:connector-curvature="0" /></g><g
           id="g292"
           transform="translate(5.5327,254.0962)"
           style="fill:#ffffff;fill-opacity:1"><path
             d="M 0,0 C 4.06,13.657 16.911,12.793 21.479,15.771 20.058,5.353 11.455,0.576 0,0"
             style="fill:#ffffff;fill-opacity:1;fill-rule:nonzero;stroke:none"
             id="path294"
             inkscape:connector-curvature="0" /></g><g
           id="g296"
           transform="translate(7.9609,268.292)"
           style="fill:#ffffff;fill-opacity:1"><path
             d="M 0,0 C 5.072,13.318 17.82,11.499 22.598,14.13 20.4,3.842 11.466,-0.278 0,0"
             style="fill:#ffffff;fill-opacity:1;fill-rule:nonzero;stroke:none"
             id="path298"
             inkscape:connector-curvature="0" /></g><g
           id="g300"
           transform="translate(11.2075,281.7974)"
           style="fill:#ffffff;fill-opacity:1"><path
             d="M 0,0 C 6.008,12.924 18.591,10.191 23.55,12.473 20.621,2.368 11.411,-1.105 0,0"
             style="fill:#ffffff;fill-opacity:1;fill-rule:nonzero;stroke:none"
             id="path302"
             inkscape:connector-curvature="0" /></g><g
           id="g304"
           transform="translate(14.9854,294.7212)"
           style="fill:#ffffff;fill-opacity:1"><path
             d="M 0,0 C 6.506,12.667 18.979,9.452 24.02,11.535 20.701,1.547 11.359,-1.542 0,0"
             style="fill:#ffffff;fill-opacity:1;fill-rule:nonzero;stroke:none"
             id="path306"
             inkscape:connector-curvature="0" /></g><g
           id="g308"
           transform="translate(20.0771,308.1069)"
           style="fill:#ffffff;fill-opacity:1"><path
             d="M 0,0 C 7.512,12.106 19.675,7.887 24.877,9.558 20.758,-0.126 11.196,-2.462 0,0"
             style="fill:#ffffff;fill-opacity:1;fill-rule:nonzero;stroke:none"
             id="path310"
             inkscape:connector-curvature="0" /></g><g
           id="g312"
           transform="translate(25.7715,320.6133)"
           style="fill:#ffffff;fill-opacity:1"><path
             d="M 0,0 C 7.507,12.104 19.678,7.887 24.874,9.565 20.761,-0.124 11.192,-2.455 0,0"
             style="fill:#ffffff;fill-opacity:1;fill-rule:nonzero;stroke:none"
             id="path314"
             inkscape:connector-curvature="0" /></g><g
           id="g316"
           transform="translate(31.8862,333.1792)"
           style="fill:#ffffff;fill-opacity:1"><path
             d="M 0,0 C 8.74,11.25 20.405,5.786 25.738,6.908 20.635,-2.295 10.877,-3.619 0,0"
             style="fill:#ffffff;fill-opacity:1;fill-rule:nonzero;stroke:none"
             id="path318"
             inkscape:connector-curvature="0" /></g><g
           id="g320"
           transform="translate(38.7925,345.0771)"
           style="fill:#ffffff;fill-opacity:1"><path
             d="M 0,0 C 9.396,10.703 20.705,4.536 26.106,5.339 20.454,-3.533 10.637,-4.264 0,0"
             style="fill:#ffffff;fill-opacity:1;fill-rule:nonzero;stroke:none"
             id="path322"
             inkscape:connector-curvature="0" /></g><g
           id="g324"
           transform="translate(46.9355,356.9565)"
           style="fill:#ffffff;fill-opacity:1"><path
             d="M 0,0 C 10.171,9.968 20.985,2.981 26.441,3.378 20.132,-5.052 10.297,-5.052 0,0"
             style="fill:#ffffff;fill-opacity:1;fill-rule:nonzero;stroke:none"
             id="path326"
             inkscape:connector-curvature="0" /></g><g
           id="g328"
           transform="translate(55.5337,367.8623)"
           style="fill:#ffffff;fill-opacity:1"><path
             d="M 0,0 C 10.854,9.218 21.151,1.477 26.609,1.477 19.714,-6.481 9.897,-5.774 0,0"
             style="fill:#ffffff;fill-opacity:1;fill-rule:nonzero;stroke:none"
             id="path330"
             inkscape:connector-curvature="0" /></g><g
           id="g332"
           transform="translate(64.9893,378.0649)"
           style="fill:#ffffff;fill-opacity:1"><path
             d="M 0,0 C 11.45,8.464 21.203,0.054 26.648,-0.315 19.241,-7.792 9.493,-6.428 0,0"
             style="fill:#ffffff;fill-opacity:1;fill-rule:nonzero;stroke:none"
             id="path334"
             inkscape:connector-curvature="0" /></g><g
           id="g336"
           transform="translate(75.4917,387.8057)"
           style="fill:#ffffff;fill-opacity:1"><path
             d="M 0,0 C 12.099,7.515 21.127,-1.66 26.528,-2.474 18.547,-9.323 8.943,-7.173 0,0"
             style="fill:#ffffff;fill-opacity:1;fill-rule:nonzero;stroke:none"
             id="path338"
             inkscape:connector-curvature="0" /></g><g
           id="g340"
           transform="translate(86.1357,396.4795)"
           style="fill:#ffffff;fill-opacity:1"><path
             d="M 0,0 C 12.102,7.524 21.137,-1.653 26.536,-2.46 18.553,-9.314 8.952,-7.164 0,0"
             style="fill:#ffffff;fill-opacity:1;fill-rule:nonzero;stroke:none"
             id="path342"
             inkscape:connector-curvature="0" /></g><g
           id="g344"
           transform="translate(97.2017,405.0356)"
           style="fill:#ffffff;fill-opacity:1"><path
             d="M 0,0 C 12.816,6.214 20.844,-3.857 26.12,-5.229 17.467,-11.206 8.141,-8.067 0,0"
             style="fill:#ffffff;fill-opacity:1;fill-rule:nonzero;stroke:none"
             id="path346"
             inkscape:connector-curvature="0" /></g><g
           id="g348"
           transform="translate(108.6548,412.6294)"
           style="fill:#ffffff;fill-opacity:1"><path
             d="M 0,0 C 13.18,5.431 20.578,-5.109 25.774,-6.789 16.771,-12.24 7.651,-8.539 0,0"
             style="fill:#ffffff;fill-opacity:1;fill-rule:nonzero;stroke:none"
             id="path350"
             inkscape:connector-curvature="0" /></g><g
           id="g352"
           transform="translate(121.231,419.6685)"
           style="fill:#ffffff;fill-opacity:1"><path
             d="M 0,0 C 13.536,4.423 20.135,-6.629 25.187,-8.701 15.803,-13.456 6.989,-9.089 0,0"
             style="fill:#ffffff;fill-opacity:1;fill-rule:nonzero;stroke:none"
             id="path354"
             inkscape:connector-curvature="0" /></g><g
           id="g356"
           transform="translate(133.7715,425.6411)"
           style="fill:#ffffff;fill-opacity:1"><path
             d="M 0,0 C 13.819,3.438 19.61,-8.065 24.499,-10.493 14.791,-14.561 6.312,-9.573 0,0"
             style="fill:#ffffff;fill-opacity:1;fill-rule:nonzero;stroke:none"
             id="path358"
             inkscape:connector-curvature="0" /></g><g
           id="g360"
           transform="translate(146.103,432.0425)"
           style="fill:#ffffff;fill-opacity:1"><path
             d="M 0,0 C 14.038,2.445 18.98,-9.439 23.687,-12.21 13.711,-15.584 5.61,-9.989 0,0"
             style="fill:#ffffff;fill-opacity:1;fill-rule:nonzero;stroke:none"
             id="path362"
             inkscape:connector-curvature="0" /></g><g
           id="g364"
           transform="translate(159.854,436.0532)"
           style="fill:#ffffff;fill-opacity:1"><path
             d="M 0,0 C 14.193,1.294 18.149,-10.954 22.623,-14.096 12.413,-16.648 4.793,-10.412 0,0"
             style="fill:#ffffff;fill-opacity:1;fill-rule:nonzero;stroke:none"
             id="path366"
             inkscape:connector-curvature="0" /></g><g
           id="g368"
           transform="translate(173.272,439.0425)"
           style="fill:#ffffff;fill-opacity:1"><path
             d="M 0,0 C 14.184,1.292 18.155,-10.953 22.62,-14.089 12.413,-16.637 4.785,-10.416 0,0"
             style="fill:#ffffff;fill-opacity:1;fill-rule:nonzero;stroke:none"
             id="path370"
             inkscape:connector-curvature="0" /></g><g
           id="g372"
           transform="translate(186.98,441.7349)"
           style="fill:#ffffff;fill-opacity:1"><path
             d="M 0,0 C 14.255,-0.194 16.917,-12.795 21.031,-16.384 10.602,-17.846 3.676,-10.861 0,0"
             style="fill:#ffffff;fill-opacity:1;fill-rule:nonzero;stroke:none"
             id="path374"
             inkscape:connector-curvature="0" /></g><g
           id="g376"
           transform="translate(200.6343,443.3877)"
           style="fill:#ffffff;fill-opacity:1"><path
             d="M 0,0 C 14.204,-1.049 16.112,-13.792 20.005,-17.614 9.511,-18.455 3.004,-11.066 0,0"
             style="fill:#ffffff;fill-opacity:1;fill-rule:nonzero;stroke:none"
             id="path378"
             inkscape:connector-curvature="0" /></g><g
           id="g380"
           transform="translate(215.0249,444.0415)"
           style="fill:#ffffff;fill-opacity:1"><path
             d="M 0,0 C 14.096,-2.104 15.038,-14.951 18.628,-19.057 8.104,-19.109 2.174,-11.253 0,0"
             style="fill:#ffffff;fill-opacity:1;fill-rule:nonzero;stroke:none"
             id="path382"
             inkscape:connector-curvature="0" /></g><g
           id="g384"
           transform="translate(228.9087,443.7642)"
           style="fill:#ffffff;fill-opacity:1"><path
             d="M 0,0 C 13.911,-3.118 13.925,-15.997 17.218,-20.36 6.711,-19.652 1.361,-11.386 0,0"
             style="fill:#ffffff;fill-opacity:1;fill-rule:nonzero;stroke:none"
             id="path386"
             inkscape:connector-curvature="0" /></g><g
           id="g388"
           transform="translate(242.3325,442.8218)"
           style="fill:#ffffff;fill-opacity:1"><path
             d="M 0,0 C 13.781,-3.653 13.294,-16.522 16.399,-21 5.94,-19.894 0.923,-11.422 0,0"
             style="fill:#ffffff;fill-opacity:1;fill-rule:nonzero;stroke:none"
             id="path390"
             inkscape:connector-curvature="0" /></g><g
           id="g392"
           transform="translate(256.5112,440.7153)"
           style="fill:#ffffff;fill-opacity:1"><path
             d="M 0,0 C 13.423,-4.759 11.9,-17.545 14.645,-22.269 4.308,-20.31 -0.022,-11.472 0,0"
             style="fill:#ffffff;fill-opacity:1;fill-rule:nonzero;stroke:none"
             id="path394"
             inkscape:connector-curvature="0" /></g><g
           id="g396"
           transform="translate(269.9341,437.8091)"
           style="fill:#ffffff;fill-opacity:1"><path
             d="M 0,0 C 13.425,-4.748 11.909,-17.535 14.656,-22.256 4.311,-20.301 -0.015,-11.462 0,0"
             style="fill:#ffffff;fill-opacity:1;fill-rule:nonzero;stroke:none"
             id="path398"
             inkscape:connector-curvature="0" /></g><g
           id="g400"
           transform="translate(283.5298,434.522)"
           style="fill:#ffffff;fill-opacity:1"><path
             d="M 0,0 C 12.852,-6.139 10,-18.698 12.238,-23.671 2.151,-20.648 -1.231,-11.402 0,0"
             style="fill:#ffffff;fill-opacity:1;fill-rule:nonzero;stroke:none"
             id="path402"
             inkscape:connector-curvature="0" /></g><g
           id="g404"
           transform="translate(296.6157,430.3193)"
           style="fill:#ffffff;fill-opacity:1"><path
             d="M 0,0 C 12.46,-6.906 8.848,-19.267 10.785,-24.373 0.907,-20.743 -1.889,-11.311 0,0"
             style="fill:#ffffff;fill-opacity:1;fill-rule:nonzero;stroke:none"
             id="path406"
             inkscape:connector-curvature="0" /></g><g
           id="g408"
           transform="translate(309.9624,424.8926)"
           style="fill:#ffffff;fill-opacity:1"><path
             d="M 0,0 C 11.91,-7.806 7.391,-19.871 8.944,-25.108 -0.639,-20.748 -2.74,-11.133 0,0"
             style="fill:#ffffff;fill-opacity:1;fill-rule:nonzero;stroke:none"
             id="path410"
             inkscape:connector-curvature="0" /></g><g
           id="g412"
           transform="translate(322.4517,418.8188)"
           style="fill:#ffffff;fill-opacity:1"><path
             d="M 0,0 C 11.321,-8.636 5.953,-20.345 7.115,-25.677 -2.125,-20.643 -3.528,-10.902 0,0"
             style="fill:#ffffff;fill-opacity:1;fill-rule:nonzero;stroke:none"
             id="path414"
             inkscape:connector-curvature="0" /></g><g
           id="g416"
           transform="translate(368.5269,361.7412)"
           style="fill:#ffffff;fill-opacity:1"><path
             d="M 0,0 C -0.015,5.475 7.648,15.805 -1.621,26.61 -7.332,16.651 -7.98,6.825 0,0"
             style="fill:#ffffff;fill-opacity:1;fill-rule:nonzero;stroke:none"
             id="path418"
             inkscape:connector-curvature="0" /></g><g
           id="g420"
           transform="translate(376.5854,351.5205)"
           style="fill:#ffffff;fill-opacity:1"><path
             d="M 0,0 C 0.582,5.443 9.348,14.85 1.346,26.622 -5.441,17.362 -7.183,7.675 0,0"
             style="fill:#ffffff;fill-opacity:1;fill-rule:nonzero;stroke:none"
             id="path422"
             inkscape:connector-curvature="0" /></g><g
           id="g424"
           transform="translate(384.3813,341.7559)"
           style="fill:#ffffff;fill-opacity:1"><path
             d="M 0,0 C 0.906,5.402 10.176,14.306 2.85,26.508 -4.451,17.638 -6.728,8.065 0,0"
             style="fill:#ffffff;fill-opacity:1;fill-rule:nonzero;stroke:none"
             id="path426"
             inkscape:connector-curvature="0" /></g><g
           id="g428"
           transform="translate(77.7456,138.2637)"><path
             d="m 0,0 -2.546,8.779 7.556,5.139 -9.137,0.284 -2.541,8.779 -3.105,-8.599 -9.13,0.291 7.219,-5.606 -3.098,-8.6 7.563,5.137 L 0,0 z"
             style="fill:#aa3138;fill-opacity:1;fill-rule:nonzero;stroke:none"
             id="path430"
             inkscape:connector-curvature="0" /></g><g
           id="g432"
           transform="translate(117.8862,80.832)"><path
             d="m 0,0 -2.551,8.78 7.559,5.131 -9.134,0.292 -2.547,8.773 -3.097,-8.592 -9.138,0.285 7.222,-5.603 -3.098,-8.599 7.562,5.132 L 0,0 z"
             style="fill:#aa3138;fill-opacity:1;fill-rule:nonzero;stroke:none"
             id="path434"
             inkscape:connector-curvature="0" /></g><g
           id="g436"
           transform="translate(383.1235,139.1973)"><path
             d="m 0,0 -2.555,8.777 7.564,5.139 -9.137,0.284 -2.547,8.78 -3.098,-8.599 -9.138,0.286 7.226,-5.601 -3.104,-8.601 7.563,5.131 L 0,0 z"
             style="fill:#aa3138;fill-opacity:1;fill-rule:nonzero;stroke:none"
             id="path438"
             inkscape:connector-curvature="0" /></g><g
           id="g440"
           transform="translate(346.4634,93.5479)"><path
             d="M 0,0 7.345,5.458 -1.802,5.355 -4.724,14.013 -7.45,5.292 -16.591,5.188 -9.139,-0.101 -11.864,-8.826 -4.529,-3.371 2.925,-8.66 0,0 z"
             style="fill:#aa3138;fill-opacity:1;fill-rule:nonzero;stroke:none"
             id="path442"
             inkscape:connector-curvature="0" /></g><g
           id="g464"
           transform="translate(117.6074,173.9766)"
           style="fill:#ffffff;fill-opacity:1"><path
             d="M 0,0 C -0.061,1.006 -0.03,-0.95 0,0"
             style="fill:#ffffff;fill-opacity:1;fill-rule:nonzero;stroke:none"
             id="path466"
             inkscape:connector-curvature="0" /></g><g
           id="g496"
           transform="translate(89.1118,226.4321)"
           style="fill:#ffffff;fill-opacity:1"><path
             d="m 0,0 c 0,74.564 60.663,135.227 135.228,135.227 13.568,0 25.668,-1.734 38.036,-5.47 1.385,3.627 3.208,6.988 4.289,9.121 -13.633,4.252 -27.31,6.293 -42.325,6.293 C 55.18,145.171 -9.944,80.048 -9.944,0 c 0,-23.596 5.665,-45.89 15.696,-65.606 0.206,-0.403 4.936,-8.542 5.144,-8.942 3.18,0.526 6.941,1.295 10.137,2.455 -1.701,2.081 -4.807,7.944 -5.065,8.424 C 5.79,-44.683 0,-23.007 0,0"
             style="fill:#ffffff;fill-opacity:1;fill-rule:nonzero;stroke:none"
             id="path498"
             inkscape:connector-curvature="0" /></g><g
           id="g500"
           transform="translate(359.5669,226.4321)"
           style="fill:#ffffff;fill-opacity:1"><path
             d="m 0,0 c 0,-22.075 -5.34,-42.917 -14.762,-61.342 -0.293,-0.573 -3.361,-7.237 -3.662,-7.804 0.862,-5.473 1.476,-10.396 1.017,-16.751 0.847,1.238 3.713,6.572 4.523,7.838 C 1.561,-55.503 9.944,-28.713 9.944,0 c 0,57.621 -33.747,107.507 -82.512,130.938 2.614,-4.118 6.707,-11.399 7.821,-15.614 C -24.731,91.813 0,49.67 0,0"
             style="fill:#ffffff;fill-opacity:1;fill-rule:nonzero;stroke:none"
             id="path502"
             inkscape:connector-curvature="0" /></g><g
           id="g504"
           transform="translate(64.9795,216.5039)"
           style="fill:#ffffff;fill-opacity:1"><path
             d="m 0,0 7.459,1.172 4.05,-25.775 -38.58,-6.059 -1.362,8.683 31.117,4.888 L 0,0 z"
             style="fill:#ffffff;fill-opacity:1;fill-rule:nonzero;stroke:none"
             id="path506"
             inkscape:connector-curvature="0" /></g><g
           id="g508"
           transform="translate(33.8457,221.8242)"
           style="fill:#ffffff;fill-opacity:1"><path
             d="M 0,0 -0.02,8.79 39.032,8.879 39.053,0.089 0,0 z"
             style="fill:#ffffff;fill-opacity:1;fill-rule:nonzero;stroke:none"
             id="path510"
             inkscape:connector-curvature="0" /></g><g
           id="g512"
           transform="translate(77.2329,263.79)"
           style="fill:#ffffff;fill-opacity:1"><path
             d="m 0,0 c -4.86,-1.646 -9.7,-3.504 -14.527,-5.579 -4.823,-2.072 -9.445,-4.374 -13.859,-6.907 l 25.14,-4.737 -1.607,-8.528 -38.376,7.231 1.327,7.033 c 1.446,0.989 3.195,2.054 5.247,3.198 2.049,1.143 4.224,2.29 6.525,3.444 2.303,1.151 4.673,2.281 7.12,3.39 2.445,1.105 4.788,2.136 7.033,3.088 l -22.65,4.27 1.617,8.583 L 1.367,7.254 0,0 z"
             style="fill:#ffffff;fill-opacity:1;fill-rule:nonzero;stroke:none"
             id="path514"
             inkscape:connector-curvature="0" /></g><g
           id="g516"
           transform="translate(88.1021,290.7827)"
           style="fill:#ffffff;fill-opacity:1"><path
             d="m 0,0 c -1.177,-2.477 -2.54,-4.451 -4.088,-5.917 -1.549,-1.47 -3.222,-2.497 -5.016,-3.079 -1.794,-0.583 -3.682,-0.748 -5.661,-0.495 -1.98,0.254 -4.005,0.872 -6.075,1.854 l -21.943,10.413 3.769,7.942 21.28,-10.098 c 1.426,-0.679 2.714,-1.093 3.869,-1.245 1.156,-0.152 2.18,-0.097 3.072,0.164 0.895,0.263 1.666,0.728 2.316,1.397 0.65,0.668 1.201,1.477 1.651,2.429 0.919,1.934 1.071,3.784 0.453,5.555 -0.615,1.767 -2.349,3.329 -5.201,4.682 l -21.28,10.097 3.768,7.944 21.944,-10.414 c 2.07,-0.982 3.832,-2.172 5.289,-3.571 C -0.394,16.26 0.671,14.672 1.346,12.896 2.022,11.119 2.265,9.156 2.073,7 1.883,4.846 1.189,2.514 0,0"
             style="fill:#ffffff;fill-opacity:1;fill-rule:nonzero;stroke:none"
             id="path518"
             inkscape:connector-curvature="0" /></g><g
           id="g520"
           transform="translate(111.959,328.334)"
           style="fill:#ffffff;fill-opacity:1"><path
             d="m 0,0 c -2.38,0.519 -4.85,0.975 -7.406,1.369 -2.555,0.393 -4.967,0.42 -7.232,0.077 0.119,-0.775 0.325,-1.801 0.619,-3.078 0.293,-1.279 0.637,-2.597 1.03,-3.956 0.392,-1.36 0.85,-2.706 1.376,-4.038 0.525,-1.332 0.953,-2.355 1.288,-3.069 l -6.329,-7.782 c -1.33,3.198 -2.547,6.689 -3.656,10.474 -1.107,3.785 -2.209,7.895 -3.3,12.335 l -22.984,2.269 6.719,8.262 13.469,-1.363 -3.977,13.035 6.329,7.782 6.627,-21.724 C -12.099,10.544 -7.413,10.259 -3.364,9.736 0.683,9.214 4.017,8.688 6.635,8.158 L 0,0 z"
             style="fill:#ffffff;fill-opacity:1;fill-rule:nonzero;stroke:none"
             id="path522"
             inkscape:connector-curvature="0" /></g><g
           id="g524"
           transform="translate(127.9048,380.4272)"
           style="fill:#ffffff;fill-opacity:1"><path
             d="m 0,0 c 0.134,-0.585 0.3,-1.393 0.495,-2.42 0.198,-1.028 0.43,-2.213 0.698,-3.554 0.267,-1.341 0.555,-2.821 0.863,-4.442 0.308,-1.621 0.647,-3.31 1.019,-5.068 l 9.476,5.911 c -1.404,1.12 -2.752,2.187 -4.044,3.2 -1.291,1.012 -2.489,1.928 -3.595,2.748 -1.106,0.818 -2.077,1.54 -2.916,2.166 C 1.159,-0.834 0.492,-0.347 0,0 m 24.948,-20.036 c -1.086,0.921 -2.22,1.856 -3.402,2.805 -1.181,0.947 -2.358,1.893 -3.528,2.834 l -12.94,-8.074 c 0.336,-1.47 0.672,-2.943 1.009,-4.419 0.338,-1.478 0.683,-2.901 1.032,-4.27 l -7.744,-4.832 c -0.981,4.347 -1.855,8.384 -2.626,12.111 -0.771,3.724 -1.456,7.261 -2.055,10.607 -0.599,3.345 -1.13,6.545 -1.592,9.6 -0.463,3.055 -0.85,6.078 -1.163,9.073 l 7.071,4.41 C 1.53,8.194 4.068,6.512 6.628,4.764 c 2.558,-1.746 5.21,-3.624 7.951,-5.632 2.743,-2.008 5.621,-4.177 8.63,-6.506 3.009,-2.329 6.252,-4.888 9.729,-7.679 l -7.99,-4.983 z"
             style="fill:#ffffff;fill-opacity:1;fill-rule:nonzero;stroke:none"
             id="path526"
             inkscape:connector-curvature="0" /></g><g
           id="g528"
           transform="translate(179.6616,370.3818)"
           style="fill:#ffffff;fill-opacity:1"><path
             d="m 0,0 c -6.012,-2.041 -11.159,-1.923 -15.442,0.351 -4.284,2.275 -7.472,6.49 -9.559,12.644 -1.039,3.059 -1.487,5.953 -1.342,8.681 0.147,2.727 0.774,5.201 1.885,7.422 1.11,2.223 2.676,4.152 4.699,5.792 2.023,1.638 4.386,2.916 7.089,3.835 1.565,0.531 3.028,0.898 4.387,1.102 1.359,0.203 2.569,0.317 3.633,0.34 1.063,0.025 1.968,-0.015 2.719,-0.118 0.748,-0.103 1.295,-0.195 1.641,-0.277 l -0.12,-7.537 c -1.343,0.217 -2.844,0.284 -4.501,0.198 -1.656,-0.087 -3.445,-0.455 -5.367,-1.108 -1.279,-0.435 -2.462,-1.075 -3.544,-1.918 -1.081,-0.843 -1.935,-1.896 -2.556,-3.159 -0.624,-1.263 -0.967,-2.737 -1.026,-4.425 -0.065,-1.687 0.266,-3.598 0.992,-5.733 0.58,-1.708 1.308,-3.236 2.182,-4.586 0.876,-1.349 1.911,-2.416 3.108,-3.199 1.198,-0.783 2.579,-1.257 4.143,-1.421 1.563,-0.164 3.305,0.082 5.226,0.734 1.209,0.409 2.271,0.848 3.183,1.318 0.912,0.468 1.709,0.926 2.389,1.377 0.681,0.449 1.262,0.894 1.748,1.337 0.485,0.44 0.921,0.849 1.31,1.219 L 11.438,6.978 C 10.504,5.867 9.068,4.665 7.127,3.371 5.186,2.078 2.81,0.953 0,0"
             style="fill:#ffffff;fill-opacity:1;fill-rule:nonzero;stroke:none"
             id="path530"
             inkscape:connector-curvature="0" /></g><g
           id="g532"
           transform="translate(221.4751,417.6152)"
           style="fill:#ffffff;fill-opacity:1"><path
             d="m 0,0 0.749,-7.458 -11.719,-1.175 3.153,-31.4 -8.746,-0.879 -3.154,31.401 -11.717,-1.177 -0.751,7.458 L 0,0 z"
             style="fill:#ffffff;fill-opacity:1;fill-rule:nonzero;stroke:none"
             id="path534"
             inkscape:connector-curvature="0" /></g><g
           id="g536"
           transform="translate(231.9077,416.8569)"
           style="fill:#ffffff;fill-opacity:1"><path
             d="M 0,0 8.774,-0.549 6.335,-39.525 -2.439,-38.976 0,0 z"
             style="fill:#ffffff;fill-opacity:1;fill-rule:nonzero;stroke:none"
             id="path538"
             inkscape:connector-curvature="0" /></g><g
           id="g540"
           transform="translate(257.7007,394.4966)"
           style="fill:#ffffff;fill-opacity:1"><path
             d="m 0,0 c -0.488,-1.852 -0.702,-3.583 -0.641,-5.192 0.062,-1.611 0.379,-3.062 0.951,-4.359 0.571,-1.297 1.396,-2.399 2.481,-3.305 1.081,-0.907 2.421,-1.57 4.021,-1.991 1.561,-0.411 3.045,-0.492 4.454,-0.24 1.405,0.25 2.676,0.8 3.811,1.647 1.135,0.847 2.129,1.955 2.974,3.326 0.846,1.369 1.514,2.981 2.002,4.833 0.487,1.853 0.704,3.593 0.645,5.219 -0.056,1.627 -0.372,3.09 -0.941,4.387 -0.571,1.296 -1.408,2.4 -2.509,3.311 -1.101,0.912 -2.432,1.573 -3.995,1.985 -1.596,0.421 -3.095,0.494 -4.486,0.22 C 7.375,9.566 6.109,9.006 4.973,8.159 3.838,7.312 2.845,6.194 1.993,4.806 1.144,3.418 0.478,1.816 0,0 m 28.825,-7.591 c -0.849,-3.234 -2.08,-5.949 -3.688,-8.148 -1.61,-2.198 -3.467,-3.906 -5.573,-5.118 -2.107,-1.214 -4.423,-1.934 -6.95,-2.161 -2.527,-0.228 -5.116,0.007 -7.767,0.705 -2.58,0.679 -4.905,1.738 -6.973,3.177 -2.069,1.437 -3.739,3.208 -5.012,5.31 -1.271,2.103 -2.074,4.511 -2.411,7.22 -0.335,2.711 -0.074,5.682 0.774,8.918 0.853,3.231 2.11,5.939 3.771,8.125 1.664,2.185 3.578,3.884 5.746,5.101 2.165,1.216 4.493,1.944 6.983,2.182 2.492,0.238 4.988,0.026 7.497,-0.635 2.578,-0.678 4.904,-1.738 6.972,-3.175 2.069,-1.439 3.736,-3.22 5.005,-5.34 1.266,-2.12 2.069,-4.536 2.402,-7.246 0.335,-2.71 0.078,-5.681 -0.776,-8.915"
             style="fill:#ffffff;fill-opacity:1;fill-rule:nonzero;stroke:none"
             id="path542"
             inkscape:connector-curvature="0" /></g><g
           id="g544"
           transform="translate(308.4175,352.5332)"
           style="fill:#ffffff;fill-opacity:1"><path
             d="m 0,0 c 0.141,5.128 0.077,10.314 -0.194,15.56 -0.271,5.243 -0.829,10.376 -1.674,15.395 l -13.159,-21.94 -7.442,4.464 20.086,33.489 6.138,-3.682 c 0.426,-1.7 0.818,-3.71 1.18,-6.029 0.361,-2.319 0.682,-4.759 0.969,-7.316 0.282,-2.558 0.518,-5.175 0.709,-7.854 0.191,-2.675 0.343,-5.233 0.459,-7.667 L 18.929,34.185 26.418,29.691 6.331,-3.798 0,0 z"
             style="fill:#ffffff;fill-opacity:1;fill-rule:nonzero;stroke:none"
             id="path546"
             inkscape:connector-curvature="0" /></g><g
           id="g548"
           transform="translate(341.7759,332.3213)"
           style="fill:#ffffff;fill-opacity:1"><path
             d="M 0,0 C 0.822,-0.927 1.576,-1.624 2.269,-2.091 2.958,-2.56 3.6,-2.857 4.191,-2.985 c 0.59,-0.129 1.13,-0.101 1.622,0.081 0.49,0.184 0.96,0.474 1.409,0.874 0.957,0.847 1.353,2.001 1.188,3.462 -0.167,1.461 -0.855,3.61 -2.069,6.45 -0.511,1.256 -0.974,2.555 -1.382,3.896 -0.413,1.342 -0.625,2.685 -0.638,4.031 -0.012,1.343 0.24,2.671 0.759,3.985 0.517,1.313 1.452,2.567 2.802,3.764 1.348,1.196 2.787,2.022 4.318,2.475 1.531,0.453 3.089,0.553 4.668,0.3 1.583,-0.256 3.163,-0.863 4.741,-1.823 1.578,-0.96 3.105,-2.268 4.576,-3.927 1.743,-1.968 3.043,-3.855 3.891,-5.663 0.851,-1.808 1.434,-3.399 1.751,-4.775 L 24.958,7.444 c -0.303,1.189 -0.735,2.426 -1.295,3.709 -0.563,1.285 -1.467,2.631 -2.713,4.036 -1.395,1.574 -2.615,2.512 -3.661,2.814 -1.049,0.303 -2.019,0.055 -2.92,-0.743 -0.534,-0.474 -0.871,-1 -1.013,-1.576 -0.142,-0.577 -0.154,-1.227 -0.037,-1.953 0.115,-0.725 0.321,-1.496 0.619,-2.312 0.297,-0.817 0.642,-1.703 1.039,-2.658 0.781,-2.016 1.399,-3.829 1.849,-5.44 0.446,-1.609 0.638,-3.112 0.567,-4.504 -0.072,-1.394 -0.434,-2.71 -1.094,-3.948 -0.66,-1.236 -1.694,-2.479 -3.099,-3.726 -2.726,-2.418 -5.69,-3.337 -8.888,-2.759 -3.199,0.579 -6.507,2.793 -9.922,6.645 -1.146,1.292 -2.103,2.528 -2.869,3.703 -0.77,1.179 -1.394,2.267 -1.878,3.268 -0.488,0.999 -0.86,1.901 -1.116,2.701 -0.258,0.8 -0.453,1.498 -0.573,2.091 l 6.873,2.78 C -4.88,8.277 -4.354,6.822 -3.6,5.205 -2.846,3.591 -1.645,1.855 0,0"
             style="fill:#ffffff;fill-opacity:1;fill-rule:nonzero;stroke:none"
             id="path550"
             inkscape:connector-curvature="0" /></g><g
           id="g552"
           transform="translate(395.3892,310.4204)"
           style="fill:#ffffff;fill-opacity:1"><path
             d="m 0,0 4.169,-7.74 -34.385,-18.514 -4.169,7.741 14.588,7.855 -6.999,12.999 -14.588,-7.855 -4.169,7.74 L -11.169,20.74 -6.999,13 -20.146,5.919 -13.148,-7.08 0,0 z"
             style="fill:#ffffff;fill-opacity:1;fill-rule:nonzero;stroke:none"
             id="path554"
             inkscape:connector-curvature="0" /></g><g
           id="g556"
           transform="translate(388.4155,275.2964)"
           style="fill:#ffffff;fill-opacity:1"><path
             d="m 0,0 c -1.864,-0.434 -3.496,-1.052 -4.89,-1.858 -1.393,-0.808 -2.529,-1.766 -3.41,-2.878 -0.879,-1.11 -1.466,-2.357 -1.763,-3.736 -0.297,-1.381 -0.256,-2.874 0.119,-4.486 0.366,-1.574 0.987,-2.923 1.868,-4.05 0.877,-1.126 1.957,-1.992 3.237,-2.603 1.278,-0.608 2.723,-0.968 4.329,-1.075 1.608,-0.108 3.343,0.056 5.207,0.489 1.868,0.434 3.508,1.056 4.921,1.865 1.408,0.812 2.557,1.774 3.435,2.884 0.88,1.111 1.466,2.365 1.758,3.765 0.291,1.398 0.255,2.884 -0.111,4.457 -0.376,1.611 -1.01,2.967 -1.903,4.07 -0.892,1.103 -1.98,1.961 -3.258,2.57 C 8.259,0.022 6.807,0.378 5.184,0.484 3.557,0.587 1.829,0.427 0,0 m 6.753,-29.034 c -3.257,-0.758 -6.232,-0.939 -8.928,-0.544 -2.695,0.395 -5.069,1.242 -7.128,2.538 -2.055,1.295 -3.774,3.007 -5.157,5.134 -1.382,2.13 -2.382,4.529 -3.004,7.199 -0.605,2.599 -0.754,5.147 -0.446,7.648 0.303,2.502 1.087,4.806 2.353,6.913 1.266,2.107 3.017,3.943 5.258,5.503 2.239,1.562 4.987,2.723 8.245,3.48 3.255,0.758 6.24,0.912 8.947,0.461 2.709,-0.448 5.106,-1.348 7.192,-2.694 2.088,-1.347 3.82,-3.066 5.192,-5.157 1.374,-2.092 2.356,-4.4 2.943,-6.925 0.604,-2.597 0.751,-5.147 0.447,-7.647 -0.306,-2.502 -1.1,-4.807 -2.383,-6.919 -1.282,-2.111 -3.043,-3.948 -5.286,-5.51 -2.24,-1.564 -4.988,-2.724 -8.245,-3.48"
             style="fill:#ffffff;fill-opacity:1;fill-rule:nonzero;stroke:none"
             id="path558"
             inkscape:connector-curvature="0" /></g><g
           id="g560"
           transform="translate(409.7876,209.0342)"
           style="fill:#ffffff;fill-opacity:1"><path
             d="m 0,0 c -1.57,-0.339 -3.338,-0.711 -5.306,-1.115 -1.971,-0.404 -4.007,-0.839 -6.111,-1.31 -2.104,-0.468 -4.212,-0.947 -6.316,-1.435 -2.111,-0.488 -4.063,-0.968 -5.869,-1.441 1.877,-0.626 3.92,-1.274 6.132,-1.944 2.213,-0.668 4.502,-1.316 6.868,-1.941 2.364,-0.623 4.72,-1.236 7.07,-1.84 2.347,-0.604 4.613,-1.173 6.799,-1.707 l -0.655,-9.11 c -6.425,1.787 -12.928,3.78 -19.513,5.976 -6.586,2.196 -12.823,4.511 -18.712,6.94 l 0.574,8.022 c 3.694,1.051 7.559,2.051 11.602,3.001 4.041,0.952 8.091,1.883 12.149,2.794 -3.885,1.486 -7.763,2.971 -11.629,4.454 -3.87,1.484 -7.554,3.012 -11.055,4.584 l 0.575,8.011 c 6.176,1.564 12.679,2.959 19.509,4.191 6.831,1.23 13.554,2.271 20.168,3.119 L 5.597,19.751 C 3.36,19.533 1.036,19.283 -1.378,19.003 c -2.413,-0.281 -4.834,-0.581 -7.266,-0.899 -2.433,-0.316 -4.794,-0.648 -7.076,-0.996 -2.287,-0.348 -4.402,-0.717 -6.351,-1.107 1.787,-0.807 3.687,-1.604 5.704,-2.389 2.013,-0.785 4.03,-1.554 6.047,-2.301 2.018,-0.749 3.966,-1.447 5.84,-2.09 1.874,-0.644 3.547,-1.227 5.017,-1.745 L 0,0 z"
             style="fill:#ffffff;fill-opacity:1;fill-rule:nonzero;stroke:none"
             id="path562"
             inkscape:connector-curvature="0" /></g><path
           sodipodi:type="arc"
           style="fill:#ffffff;fill-opacity:1;stroke:none"
           id="path5277"
           sodipodi:cx="168.37968"
           sodipodi:cy="187.47301"
           sodipodi:rx="44.533669"
           sodipodi:ry="50.471493"
           d="m 212.91335,187.47301 c 0,27.87463 -19.9384,50.47149 -44.53367,50.47149 -24.59526,0 -44.53366,-22.59686 -44.53366,-50.47149 0,-27.87464 19.9384,-50.4715 44.53366,-50.4715 24.59527,0 44.53367,22.59686 44.53367,50.4715 z"
           transform="matrix(0.8,0,0,-0.8,55.645881,437.36901)" /></g><g
         id="g4202"><g
           id="g444"
           transform="translate(290.8657,239.0464)"><path
             d="m 0,0 c -10.498,-1.989 -20.488,-0.779 -29.394,1.936 1.006,-12.259 2.624,-20.949 3.536,-25.164 15.085,-3.516 28.906,-3.76 28.906,-3.76 L 0,0 z"
             style="fill:#373535;fill-opacity:1;fill-rule:nonzero;stroke:none"
             id="path446"
             inkscape:connector-curvature="0" /></g><g
           id="g448"
           transform="translate(315.605,208.1016)"><path
             d="m 0,0 0,-0.022 c 0,0.009 0.012,0.017 0.021,0.017 C 0.017,-0.005 0,0 0,0"
             style="fill:#373535;fill-opacity:1;fill-rule:nonzero;stroke:none"
             id="path450"
             inkscape:connector-curvature="0" /></g><g
           id="g4091"><g
             transform="translate(180.1333,274.2378)"
             id="g20"><path
               inkscape:connector-curvature="0"
               id="path22"
               style="fill:#373535;fill-opacity:1;fill-rule:nonzero;stroke:none"
               d="M 0,0 C 0.578,0.085 6.209,4.236 11.848,3.978 17.487,3.72 20.103,2.7 20.757,1.664 c 0.653,-1.036 13.317,-6.618 14.79,-7.563 1.47,-0.945 6.374,-0.859 2.615,-4.381 -3.76,-3.522 -5.72,-7.042 -12.013,-9.792 -6.293,-2.748 -17.978,-7.215 -21.656,-3.865 -3.678,3.351 -16.181,10.05 -13.566,12.197 2.616,2.147 8.982,10.737 8.982,10.737" /></g><g
             transform="translate(313.478,247.1528)"
             id="g452"><path
               inkscape:connector-curvature="0"
               id="path454"
               style="fill:#373535;fill-opacity:1;fill-rule:nonzero;stroke:none"
               d="m 0,0 c -1.281,0.814 -2.662,1.588 -4.111,2.335 l 0,0.02 C -4.257,2.429 -4.412,2.5 -4.56,2.569 c -0.127,0.067 -0.245,0.139 -0.375,0.2 0,-0.004 0,-0.009 0.007,-0.021 -2.764,1.324 -6.359,2.83 -9.482,3.859 0,0 -7.729,-21.191 9.995,-34.676 0,0 -0.414,-8.63 -0.44,-9.08 0,0 4.333,-2.928 4.993,-3.351 2.63,2.173 4.464,4.109 6.746,7.001 C 16.978,-20.676 13.422,-8.574 0,0" /></g><g
             transform="translate(280.5747,126.958)"
             id="g456"><path
               inkscape:connector-curvature="0"
               id="path458"
               style="fill:#eea136;fill-opacity:1;fill-rule:nonzero;stroke:none"
               d="m 0,0 c -6.054,5.516 -11.562,10.933 -12.495,16.514 -0.138,0.814 -0.232,1.695 -0.327,2.6 -0.603,5.772 -1.462,9.124 -7.739,8.604 -0.506,-0.047 -1.16,-0.113 -1.915,-0.194 -2.568,-0.273 -6.453,-0.682 -9.855,-0.682 -1.903,0 -3.425,0.127 -4.654,0.376 -1.553,0.324 -3.424,0.774 -5.407,1.259 -3.459,0.838 -7.38,1.794 -9.138,1.845 l -0.242,0.006 c -1.418,0 -4.38,0 -4.584,-10.4 -0.231,-11.574 -2.051,-24.418 -4.629,-32.706 -2.198,-7.055 -2.126,-16.577 5.31,-20.191 2.316,-1.125 4.524,-1.67 6.759,-1.67 4.637,0 9.821,2.368 16.789,7.693 9.791,7.473 23.806,16.888 27.924,18.294 2.179,0.744 5.59,2.656 6.053,4.885 C 2.091,-2.609 1.468,-1.342 0,0" /></g><g
             transform="translate(330.0942,173.9814)"
             id="g460"><path
               inkscape:connector-curvature="0"
               id="path462"
               style="fill:#aa3138;fill-opacity:1;fill-rule:nonzero;stroke:none"
               d="m 0,0 c -8.431,21.479 -20.849,28.843 -20.849,28.843 l -9.08,-24.54 c 1.492,13.961 4.547,27.057 4.867,39.387 -2.609,1.295 -10.907,5.408 -11.948,20.303 -0.343,4.926 -0.303,9.063 2.645,20.619 0,0 5.539,0.306 9.06,-2.801 2.287,67.344 -23.249,99.455 -24.95,102.322 -2.256,3.783 -4.993,5.9 -4.993,5.9 C -103.685,120.876 -63.347,1.194 -63.347,1.194 l -11.679,24.071 c 0,0 -7.756,1.256 -15.427,-22.79 -1.397,-4.371 -2.369,-8.985 -3.019,-13.689 1.283,-0.289 2.632,-0.618 4.021,-0.957 1.945,-0.468 3.846,-0.934 5.388,-1.247 0.969,-0.2 2.283,-0.303 3.925,-0.303 3.26,0 7.098,0.407 9.632,0.671 0.815,0.089 1.517,0.155 2.061,0.203 0.553,0.049 1.069,0.074 1.566,0.074 9.505,0 10.33,-7.866 10.825,-12.563 0.089,-0.845 0.173,-1.658 0.298,-2.405 0.743,-4.419 6.084,-9.607 11.495,-14.532 3.315,-3.026 3.095,-5.847 3.162,-7.759 0.219,-6.13 -10.398,-12.231 -12.874,-13.731 4.484,-10.027 8.44,-14.077 8.44,-14.077 15.059,14.82 16.121,47.157 16.121,47.157 15.309,-5.712 27.195,-46.861 27.195,-46.861 0,0 12.658,50.911 2.217,77.544" /></g><g
             transform="translate(162.9556,98.3301)"
             id="g468"><path
               inkscape:connector-curvature="0"
               id="path470"
               style="fill:#eea136;fill-opacity:1;fill-rule:nonzero;stroke:none"
               d="m 0,0 -0.904,-0.764 c -5.104,-4.352 -11.298,-4.193 -21.61,0.424 -7.596,3.392 -20.145,6.126 -29.302,8.112 -3.366,0.735 -6.272,1.362 -8.105,1.852 -2.364,0.637 -4.052,1.757 -4.871,3.245 -0.678,1.213 -0.795,2.711 -0.335,4.206 1.474,4.819 1.539,13.832 1.315,16.783 -0.08,1.044 -0.303,2.211 -0.542,3.441 -0.457,2.351 -1.076,5.581 -0.24,7.005 0.961,1.323 7.31,2.846 10.364,3.577 2.213,0.534 4.13,0.992 5.525,1.501 3.431,1.253 6.007,5.054 8.501,8.741 0.019,0.03 0.036,0.052 0.05,0.077 1.299,1.932 2.533,3.754 3.727,4.998 1.803,1.889 3.598,2.17 4.509,2.17 0.235,0 0.4,-0.015 0.409,-0.015 l 0.239,-0.037 c 4.236,-1.284 19.49,-25.064 25.23,-34.02 2.424,-3.778 4.34,-6.762 5.617,-8.592 C 5.333,14.418 6.149,11.595 5.881,8.049 5.842,7.581 5.809,7.184 5.767,6.826 5.507,4.739 4.807,4.087 0,0" /></g><g
             transform="translate(177.8999,295.7158)"
             id="g472"><path
               inkscape:connector-curvature="0"
               id="path474"
               style="fill:#373535;fill-opacity:1;fill-rule:nonzero;stroke:none"
               d="M 0,0 0,-0.371 0,0 0,0.371 0,0 z" /></g><g
             transform="translate(216.2114,129.0547)"
             id="g476"><path
               inkscape:connector-curvature="0"
               id="path478"
               style="fill:#373535;fill-opacity:1;fill-rule:nonzero;stroke:none"
               d="m 0,0 c -14.462,-7.648 -36.614,-9.905 -50,-0.227 1.568,-2.439 2.901,-4.517 3.766,-5.744 4.831,-6.956 6.128,-10.22 5.796,-14.546 -0.045,-0.613 -0.111,-1.157 -0.203,-1.651 8.467,-1.619 17.331,-1.221 26.203,-0.38 3.874,0.37 7.311,1.085 10.43,2.127 0.104,2.107 0.5,4.334 1.214,6.647 C -1.635,-10.062 -0.666,-5.207 0,0" /></g><g
             transform="translate(235.0913,181.1826)"
             id="g480"><path
               inkscape:connector-curvature="0"
               id="path482"
               style="fill:#f1f2f2;fill-opacity:1;fill-rule:nonzero;stroke:none"
               d="m 0,0 c -1.675,12.307 -6.409,23.839 -13.354,32.472 -10.499,13.063 -15.669,26.084 -17.577,34.449 -4.549,-2.704 -9.473,-4.478 -11.308,-4.396 -3.073,0.13 -6.625,-0.4 -11.154,2.139 -1.459,-8.185 -4.446,-18.447 -9.514,-26.922 -10.984,-18.352 -20.368,-48.131 -16.248,-67.385 2.902,-4.243 6.315,-9.433 10.727,-16.297 l 0.029,-0.041 c 5.754,-3.788 13.51,-5.788 22.44,-5.788 9.095,0 18.539,2.025 26.701,5.718 0.401,3.871 0.654,7.808 0.721,11.444 0.372,18.207 9.732,20.926 15.282,20.926 l 0.462,-0.005 c 0.252,-0.013 0.505,-0.022 0.759,-0.038 0.597,2.828 1.301,5.534 2.108,8.055 0.161,0.513 0.329,1.021 0.491,1.505 L 0,0 z" /></g><g
             transform="translate(248.8569,210.6807)"
             id="g484"><path
               inkscape:connector-curvature="0"
               id="path486"
               style="fill:#373535;fill-opacity:1;fill-rule:nonzero;stroke:none"
               d="m 0,0 c 2.786,-1.071 0.93,-0.37 3.803,-1.153 -0.97,4.902 -3.04,15.117 -3.869,26.241 -13.238,4.838 -18.092,9.288 -23.073,13.63 -0.296,1.019 -0.582,2.036 -0.8,3.072 -4.146,18.97 -0.315,28.795 -3.903,43.204 l 0.018,0 c -0.98,5.382 -4.333,9.522 -7.448,12.322 0.005,0 0.012,-0.003 0.022,-0.003 -0.305,0.275 -0.625,0.522 -0.94,0.787 -0.099,0.085 -0.205,0.182 -0.305,0.257 -0.304,0.251 -0.618,0.498 -0.934,0.74 -0.416,0.309 -0.809,0.592 -1.176,0.846 -0.131,0.089 -0.262,0.175 -0.392,0.257 -1.352,0.904 -2.274,1.38 -2.274,1.38 l -0.031,0 c -8.538,4.653 -23.594,3.492 -31.863,-0.709 -17.549,-8.925 -15.219,-39.644 -14.785,-45.767 1.597,-22.448 -2.353,-24.879 -7.759,-35.84 -0.242,-0.484 -0.498,-0.991 -0.754,-1.498 -4.786,-8.117 -11.211,-18.513 -18.595,-29.126 -6.922,-9.955 -11.544,-22.278 -11.256,-33.74 0.31,0.378 1.261,1.161 1.586,1.498 1.04,1.091 3.481,3.009 6.153,2.702 2.856,9.213 10.296,31.452 17.377,36.804 0,0 -12.262,-21.048 -13.923,-37.366 4.73,-2.127 10.675,-9.082 15.91,-19.465 -5.505,22.365 5.803,55.399 16.783,73.798 7.766,12.997 9.852,24.547 10.112,30.59 -4.354,2.81 -8.936,4.402 -9.799,8.509 -0.396,1.846 -0.037,3.674 1.045,5.282 1.64,2.455 3.637,3.575 6.937,5.428 0.187,0.108 0.408,0.231 0.604,0.341 -1.971,1.926 -3.414,4.861 -3.767,8.302 -0.636,6.349 2.612,11.884 7.26,12.361 4.646,0.482 8.934,-4.27 9.575,-10.616 0.131,-1.311 0.045,-2.557 -0.129,-3.762 0.964,0.176 1.978,0.272 3.113,0.272 1.366,-0.006 2.735,-0.225 4.055,-0.546 -0.173,1.195 -0.241,2.448 -0.111,3.748 0.65,6.346 4.991,11.097 9.696,10.621 4.704,-0.484 7.993,-6.021 7.342,-12.364 -0.291,-2.873 -1.367,-5.38 -2.864,-7.262 4.462,-1.781 8.036,-3.913 8.88,-7.269 1.062,-4.211 -0.565,-5.633 -4.993,-8.902 -0.325,1.724 -1.147,-2.479 -2.69,-3.504 0.518,-7.176 3.58,-20.13 16.136,-35.792 8.236,-10.272 12.443,-19.069 14.169,-31.786 0.679,1.592 4.298,13.308 12.742,15.475 C 3.794,-6.271 4.692,-7.712 3.82,-6.101 2.745,-4.13 1.441,-2.101 0,0" /></g><g
             transform="translate(203.646,287.6274)"
             id="g488"><path
               inkscape:connector-curvature="0"
               id="path490"
               style="fill:#373535;fill-opacity:1;fill-rule:nonzero;stroke:none"
               d="m 0,0 c -2.539,0.42 -5.07,-2.011 -5.643,-5.438 -0.198,-1.165 -0.123,-2.282 0.133,-3.281 0.985,-0.352 1.88,-0.72 2.711,-1.079 -0.641,0.606 -1.019,1.561 -0.87,2.612 0.23,1.599 1.513,2.739 2.873,2.545 1.358,-0.192 2.271,-1.648 2.046,-3.245 -0.219,-1.513 -1.389,-2.576 -2.664,-2.525 0.087,-0.041 0.203,-0.09 0.291,-0.129 0.456,-0.213 0.852,-0.392 1.174,-0.529 0.229,-0.096 0.609,-0.225 1.047,-0.375 1.207,0.971 2.144,2.55 2.467,4.467 C 4.139,-3.551 2.541,-0.427 0,0" /></g><g
             transform="translate(180.1782,287.9155)"
             id="g492"><path
               inkscape:connector-curvature="0"
               id="path494"
               style="fill:#373535;fill-opacity:1;fill-rule:nonzero;stroke:none"
               d="m 0,0 c -2.513,-0.427 -4.088,-3.551 -3.523,-6.979 0.358,-2.144 1.466,-3.901 2.867,-4.811 0.803,0.471 1.535,0.886 2.248,1.276 -1.346,-0.088 -2.54,1.091 -2.689,2.676 -0.147,1.607 0.837,3.015 2.202,3.142 1.367,0.125 2.592,-1.078 2.743,-2.685 0.086,-0.93 -0.237,-1.758 -0.766,-2.346 0.817,0.41 1.6,0.771 2.366,1.058 0.241,0.99 0.313,2.086 0.122,3.231 C 5.007,-2.011 2.506,0.42 0,0" /></g><g
             transform="translate(220.0083,267.4775)"
             id="g564"><path
               inkscape:connector-curvature="0"
               id="path566"
               style="fill:#eea136;fill-opacity:1;fill-rule:nonzero;stroke:none"
               d="m 0,0 c -1.076,4.28 -13.078,7.776 -15.569,8.81 -2.494,1.036 -8.098,3.958 -13.17,3.971 -4.922,0.018 -7.837,-1.614 -14.528,-5.553 -6.686,-3.938 -9.355,-4.871 -11.253,-7.706 -4.084,-6.098 10.102,-12.803 15.677,-16.944 5.575,-4.141 9.761,-3.395 13.302,-3.546 3.548,-0.154 18.059,9.332 20.775,11.326 C -2.061,-7.646 1.081,-4.276 0,0 m -27.514,-14.002 c -12.905,-0.123 -20.108,8.435 -20.108,8.435 0,0 10.222,-6.226 20.108,-6.398 10.49,-0.183 17.642,4.956 24.688,9.303 0,0 -9.009,-11.19 -24.688,-11.34 m -6.73,23.487 c 0.579,0.224 2.755,0.748 2.905,0.321 0.099,-0.286 -0.02,-0.357 -0.02,-0.357 0,0 -1.053,-0.954 -1.671,-1.388 -0.625,-0.438 -1.743,-1.345 -2.392,-0.663 -0.652,0.673 0.594,1.856 1.178,2.087 m 8.235,0.283 c 3.213,0.305 3.831,-0.969 3.947,-1.718 0.113,-0.742 -0.849,-0.935 -1.261,-0.767 -0.413,0.165 -2.641,1.488 -3.137,1.911 -0.487,0.428 0.451,0.574 0.451,0.574" /></g></g></g></g></g></svg>